<svg xmlns="http://www.w3.org/2000/svg" viewBox="0 0 32 32" width="32" height="32" fill="none">
  <defs>
    <clipPath id="wc">
      <circle cx="16" cy="16" r="14.5"/>
    </clipPath>
  </defs>
  <circle cx="16" cy="16" r="14.5" fill="#d97706"/>
  <g clip-path="url(#wc)">
    <!-- row 1 -->
    <rect x="8.3"  y="4.3"  width="3.4" height="3.4" fill="#22c55e"/>
    <rect x="12.3" y="4.3"  width="3.4" height="3.4" fill="#22c55e"/>
    <rect x="16.3" y="4.3"  width="3.4" height="3.4" fill="#22c55e"/>
    <rect x="20.3" y="4.3"  width="3.4" height="3.4" fill="#22c55e"/>
    <!-- row 2 -->
    <rect x="4.3"  y="8.3"  width="3.4" height="3.4" fill="#22c55e"/>
    <rect x="8.3"  y="8.3"  width="3.4" height="3.4" fill="#22c55e"/>
    <rect x="12.3" y="8.3"  width="3.4" height="3.4" fill="#22c55e"/>
    <rect x="16.3" y="8.3"  width="3.4" height="3.4" fill="#dc2626"/>
    <rect x="20.3" y="8.3"  width="3.4" height="3.4" fill="#22c55e"/>
    <rect x="24.3" y="8.3"  width="3.4" height="3.4" fill="#22c55e"/>
    <!-- row 3 -->
    <rect x="4.3"  y="12.3" width="3.4" height="3.4" fill="#22c55e"/>
    <rect x="8.3"  y="12.3" width="3.4" height="3.4" fill="#22c55e"/>
    <rect x="12.3" y="12.3" width="3.4" height="3.4" fill="#22c55e"/>
    <rect x="16.3" y="12.3" width="3.4" height="3.4" fill="#22c55e"/>
    <rect x="20.3" y="12.3" width="3.4" height="3.4" fill="#22c55e"/>
    <rect x="24.3" y="12.3" width="3.4" height="3.4" fill="#22c55e"/>
    <!-- row 4 -->
    <rect x="4.3"  y="16.3" width="3.4" height="3.4" fill="#22c55e"/>
    <rect x="8.3"  y="16.3" width="3.4" height="3.4" fill="#22c55e"/>
    <rect x="12.3" y="16.3" width="3.4" height="3.4" fill="#22c55e"/>
    <rect x="16.3" y="16.3" width="3.4" height="3.4" fill="#22c55e"/>
    <rect x="20.3" y="16.3" width="3.4" height="3.4" fill="#dc2626"/>
    <rect x="24.3" y="16.3" width="3.4" height="3.4" fill="#22c55e"/>
    <!-- row 5 -->
    <rect x="4.3"  y="20.3" width="3.4" height="3.4" fill="#22c55e"/>
    <rect x="8.3"  y="20.3" width="3.4" height="3.4" fill="#dc2626"/>
    <rect x="12.3" y="20.3" width="3.4" height="3.4" fill="#22c55e"/>
    <rect x="16.3" y="20.3" width="3.4" height="3.4" fill="#22c55e"/>
    <rect x="20.3" y="20.3" width="3.4" height="3.4" fill="#22c55e"/>
    <rect x="24.3" y="20.3" width="3.4" height="3.4" fill="#22c55e"/>
    <!-- row 6 -->
    <rect x="8.3"  y="24.3" width="3.4" height="3.4" fill="#22c55e"/>
    <rect x="12.3" y="24.3" width="3.4" height="3.4" fill="#22c55e"/>
    <rect x="16.3" y="24.3" width="3.4" height="3.4" fill="#22c55e"/>
    <rect x="20.3" y="24.3" width="3.4" height="3.4" fill="#22c55e"/>
  </g>
  <circle cx="16" cy="16" r="14.5" stroke="#5577aa" stroke-width="1.2"/>
</svg>
